<svg width="91" height="91" viewBox="0 0 91 91" fill="none" xmlns="http://www.w3.org/2000/svg">
<g clip-path="url(#clip0_29_5363)">
<path d="M71.5704 21.1238C71.1333 20.8997 70.6735 20.7257 70.1993 20.605C70.1993 20.605 65.808 24.1346 64.3042 25.8911C64.2332 25.7389 64.1689 25.6021 64.1179 25.4961C63.9516 25.8566 63.7473 26.1973 63.5085 26.512C61.953 28.7185 58.569 33.2284 57.3148 33.8636C56.0602 34.499 49.9481 32.9204 46.9435 32.0834C46.5947 31.9862 46.2173 33.1538 46.5061 33.377L48.8634 34.8099C50.3531 36.0578 56.6989 37.6775 58.6498 36.945C62.516 35.4206 65.498 30.5549 66.9102 28.047C67.7448 28.164 70.5978 27.6769 72.0755 25.1258C73.7714 22.1984 72.292 21.4943 71.5704 21.1238Z" fill="#FF9839"/>
<path d="M65.0548 19.0965C67.3329 16.7026 69.9627 14.6905 72.8482 13.1338C72.9592 13.0489 73.0867 12.9897 73.222 12.9601C73.3574 12.9306 73.4974 12.9315 73.6324 12.9627C73.7674 12.9939 73.8942 13.0547 74.0041 13.141C74.1141 13.2273 74.2046 13.337 74.2694 13.4625C75.2507 15.4179 76.2169 17.3097 77.1417 19.0266C77.2543 19.2446 77.2831 19.4979 77.2226 19.7366C77.1621 19.9754 77.0166 20.1821 76.8149 20.316C74.3737 21.9956 71.7669 24.0464 69.0527 26.3379C68.9402 26.4126 68.8137 26.4622 68.6814 26.4837C68.5492 26.5052 68.414 26.498 68.2845 26.4625C68.1551 26.4271 68.0344 26.3643 67.93 26.278C67.8257 26.1918 67.7401 26.0841 67.6787 25.9618L64.7751 20.3386C64.671 20.1311 64.6419 19.8923 64.6931 19.6649C64.7443 19.4374 64.8725 19.236 65.0548 19.0965Z" fill="white" stroke="#1C1C1B" stroke-width="0.348518" stroke-miterlimit="10"/>
<path d="M64.8354 20.1356L70.7145 19.881C70.8668 19.8832 71.0161 19.8373 71.1422 19.7496C71.2683 19.6619 71.3651 19.5365 71.4196 19.3904L74.0241 13.3173" fill="white"/>
<path d="M64.8354 20.1356L70.7145 19.881C70.8668 19.8832 71.0161 19.8373 71.1422 19.7496C71.2683 19.6619 71.3651 19.5365 71.4196 19.3904L74.0241 13.3173" stroke="#1C1C1B" stroke-width="0.348518" stroke-miterlimit="10"/>
<path d="M63.813 26.1264C63.813 26.1264 62.5261 23.693 63.9693 21.2226C65.4217 18.7366 66.912 19.4687 67.2888 20.7038C67.9142 22.7543 66.3386 24.3477 66.8798 25.1629" fill="#FF9839"/>
<path d="M49.0078 32.636C49.0078 32.636 55.5986 34.3653 56.6089 34.0194C57.6192 33.6736 58.1483 33.6736 61.8046 28.6833C63.2959 26.5588 63.7229 26.1264 63.7229 26.1264C63.4089 25.3411 63.2681 24.494 63.3107 23.6461C63.3533 22.7983 63.5783 21.9706 63.9694 21.2227C65.3104 18.6781 67.1325 19.4193 67.4031 21.3276C67.5576 22.4838 67.3083 23.6588 66.6996 24.6442" stroke="black" stroke-width="0.348518" stroke-miterlimit="10" stroke-linecap="round"/>
<path d="M72.8694 23.3843C72.8694 23.3843 71.3965 27.9667 66.9102 28.0471C65.6531 30.1285 62.478 35.3164 58.906 36.8172C57.2102 37.4842 52.7181 36.6689 50.2104 35.5387" stroke="black" stroke-width="0.348518" stroke-miterlimit="10" stroke-linecap="round"/>
<path d="M51.8167 80.5013C49.139 80.1992 46.4621 79.8972 43.7859 79.5952" stroke="black" stroke-width="2.41828" stroke-miterlimit="10" stroke-linecap="round"/>
<path d="M49.2415 90.0965C28.5095 90.0965 11.7029 88.9196 11.7029 87.4677C11.7029 86.0159 28.5095 84.839 49.2415 84.839C69.9735 84.839 86.7801 86.0159 86.7801 87.4677C86.7801 88.9196 69.9735 90.0965 49.2415 90.0965Z" fill="black"/>
<path d="M74.171 87.0125C71.3023 87.0125 68.498 86.1388 66.1127 84.502C63.7275 82.8652 61.8684 80.5387 60.7706 77.8167C59.6728 75.0947 59.3856 72.0995 59.9452 69.2099C60.5049 66.3203 61.8863 63.666 63.9148 61.5827C65.9432 59.4994 68.5277 58.0806 71.3413 57.5058C74.1549 56.9311 77.0712 57.2261 79.7216 58.3535C82.3719 59.481 84.6372 61.3903 86.2309 63.8401C87.8247 66.2898 88.6754 69.1699 88.6754 72.1161C88.6753 76.0669 87.1472 79.8558 84.4271 82.6494C81.707 85.443 78.0178 87.0125 74.171 87.0125Z" fill="white" stroke="black" stroke-width="1.42251" stroke-miterlimit="10"/>
<path d="M25.6312 87.0125C22.7625 87.0125 19.9582 86.1388 17.573 84.502C15.1877 82.8652 13.3286 80.5387 12.2308 77.8167C11.133 75.0947 10.8458 72.0995 11.4054 69.2099C11.9651 66.3203 13.3465 63.666 15.375 61.5827C17.4034 59.4994 19.9879 58.0806 22.8015 57.5058C25.6151 56.9311 28.5314 57.2261 31.1818 58.3535C33.8321 59.481 36.0974 61.3903 37.6911 63.8401C39.2849 66.2898 40.1356 69.1699 40.1356 72.1161C40.1356 74.0723 39.7604 76.0094 39.0315 77.8167C38.3026 79.624 37.2342 81.2662 35.8873 82.6494C34.5405 84.0327 32.9415 85.13 31.1818 85.8786C29.422 86.6272 27.5359 87.0125 25.6312 87.0125Z" fill="white" stroke="black" stroke-width="1.42251" stroke-miterlimit="10"/>
<path d="M69.2322 53.4998C59.6064 59.7046 49.9813 65.9093 40.3571 72.1141H26.3093C29.1161 66.1565 31.9222 60.198 34.7276 54.2388C45.875 52.7197 57.023 51.2013 68.1718 49.6836C68.526 50.9557 68.8795 52.2278 69.2322 53.4998Z" stroke="black" stroke-width="1.42251" stroke-miterlimit="10"/>
<path d="M74.1718 72.1167C72.1714 64.6399 70.171 57.163 68.1705 49.6862C71.287 48.5492 73.3633 47.0437 73.1761 46.1812C72.9867 45.3118 70.4361 44.8542 67.0344 45.2454" stroke="black" stroke-width="1.42251" stroke-miterlimit="10" stroke-linecap="round"/>
<path d="M67.3362 45.0072C65.3135 45.2177 63.2915 45.4266 61.2703 45.6341" stroke="black" stroke-width="2.41828" stroke-miterlimit="10" stroke-linecap="round"/>
<path d="M74.4754 74.3404C74.0815 74.3404 73.6965 74.2204 73.369 73.9957C73.0415 73.7709 72.7862 73.4515 72.6355 73.0777C72.4847 72.704 72.4453 72.2927 72.5222 71.8959C72.599 71.4992 72.7887 71.1347 73.0672 70.8487C73.3458 70.5626 73.7006 70.3678 74.087 70.2889C74.4733 70.21 74.8737 70.2505 75.2376 70.4054C75.6016 70.5602 75.9126 70.8223 76.1314 71.1587C76.3502 71.4951 76.467 71.8905 76.467 72.2951C76.467 72.5637 76.4155 72.8297 76.3154 73.0778C76.2153 73.326 76.0686 73.5515 75.8837 73.7414C75.6987 73.9313 75.4792 74.082 75.2376 74.1847C74.9959 74.2875 74.7369 74.3404 74.4754 74.3404Z" fill="black"/>
<path d="M25.8205 74.3404C25.4266 74.3404 25.0415 74.2205 24.714 73.9957C24.3865 73.771 24.1312 73.4515 23.9805 73.0778C23.8297 72.704 23.7903 72.2928 23.8671 71.896C23.944 71.4992 24.1336 71.1348 24.4122 70.8487C24.6907 70.5627 25.0456 70.3679 25.4319 70.2889C25.8182 70.21 26.2187 70.2505 26.5826 70.4053C26.9465 70.5602 27.2575 70.8223 27.4764 71.1587C27.6952 71.4951 27.812 71.8905 27.812 72.2951C27.812 72.8375 27.6022 73.3578 27.2287 73.7413C26.8552 74.1249 26.3487 74.3404 25.8205 74.3404Z" fill="black"/>
<path d="M40.1507 49.6376C36.0005 50.2164 33.1758 50.1592 32.757 49.0519C32.5342 48.4616 33.0288 47.6699 33.5412 47.2857C34.8733 46.2835 37.5977 47.0866 40.1507 49.6376Z" fill="black"/>
<path d="M34.1488 43.4331C33.0683 43.7718 31.7851 43.9571 30.9119 43.2799C29.6109 42.2709 30.2971 40.1775 29.0006 39.3584C27.7732 38.5851 26.2895 39.9075 25.5855 39.1274C25.0487 38.5325 25.4296 37.2285 25.8306 35.8534C26.3229 34.165 26.813 33.8103 26.6325 33.0119C26.4231 32.0898 25.4609 31.2044 24.5653 31.2158C22.9056 31.2342 21.3953 34.3273 21.3574 36.9653C21.353 37.3039 21.3418 40.7494 23.2287 41.692C24.7235 42.438 26.0846 40.9553 27.4746 41.8682C28.4905 42.5363 28.1942 43.6138 29.112 44.5542C29.8226 45.284 31.2395 45.904 34.367 45.22" fill="#FF982C"/>
<path d="M34.1488 43.4331C33.0683 43.7718 31.7851 43.9571 30.9119 43.2799C29.6109 42.2709 30.2971 40.1775 29.0006 39.3584C27.7732 38.5851 26.2895 39.9075 25.5855 39.1274C25.0487 38.5325 25.4296 37.2285 25.8306 35.8534C26.3229 34.165 26.813 33.8103 26.6325 33.0119C26.4231 32.0898 25.4609 31.2044 24.5653 31.2158C22.9056 31.2342 21.3953 34.3273 21.3574 36.9653C21.353 37.3039 21.3418 40.7494 23.2287 41.692C24.7235 42.438 26.0846 40.9553 27.4746 41.8682C28.4905 42.5363 28.1942 43.6138 29.112 44.5542C29.8226 45.284 31.2395 45.904 34.367 45.22" stroke="black" stroke-width="0.366447" stroke-miterlimit="10" stroke-linecap="round"/>
<path d="M47.9227 31.6923C48.17 31.873 49.9677 33.2389 50.0836 35.6252C50.1255 36.7029 49.8338 37.7666 49.2504 38.6634C49.6776 38.8779 50.1217 39.0547 50.5781 39.192C51.9169 39.5947 53.024 39.5512 54.2181 39.4642C55.6059 39.3636 57.377 39.1805 59.451 38.8419C60.4191 38.5842 61.4368 38.5976 62.3981 38.8808C64.2025 39.4345 66.2988 41.1871 66.0091 42.9396C65.9624 43.2255 65.7752 43.9828 64.7305 44.7219C64.6344 45.1805 64.3902 45.5925 64.0377 45.8909C63.6187 46.2325 63.0863 46.3926 62.554 46.337C62.0357 46.6825 61.4462 46.8994 60.8321 46.9708C60.216 47.0409 59.5925 46.961 59.0121 46.7374C58.5195 46.8185 58.0149 46.7145 57.5908 46.4445C56.9158 45.9778 56.7644 45.1405 56.6529 44.5158C56.575 44.0828 56.5592 43.6404 56.6062 43.2027C54.9537 43.1473 53.3067 42.9784 51.6763 42.697C50.4444 42.4842 49.3039 42.2212 48.2635 41.9328C47.7333 43.5801 47.2024 45.2274 46.6708 46.8747C48.2679 47.5313 50.0612 48.3046 52.0172 49.2106C53.425 49.8627 54.4988 50.3911 55.4678 51.5465C55.6082 51.7158 56.2876 52.5258 56.6062 53.4157C57.6308 56.2871 54.5545 59.0394 52.2087 64.6699C51.4823 66.4178 50.9111 68.2295 50.5023 70.083C55.7151 69.3967 60.4111 71.5838 62.2199 75.3794C63.2758 77.5941 63.0954 79.8224 62.8638 81.1036C57.7534 80.5934 52.4827 79.9185 47.0517 79.0789C45.156 78.7815 43.2855 78.4704 41.4402 78.1454C41.9305 74.0444 43.1691 70.075 45.0913 66.4453C46.1838 64.391 47.4894 62.4641 48.9853 60.6981C48.7069 58.3301 48.4284 55.6302 48.1522 53.2622C48.9296 53.1547 49.707 52.8243 50.4845 52.7191C50.304 52.4674 50.0278 52.6881 49.6402 52.3495C49.3022 52.0669 48.9372 51.8201 48.5509 51.6128C47.5382 51.0156 46.4373 50.5921 45.2918 50.3591C44.2826 50.2036 41.7766 49.8009 39.5845 49.2907C39.5221 49.277 38.7491 49.094 37.7266 48.7851C36.4791 48.4053 35.8531 48.2154 35.4744 47.9203C34.443 47.1195 34.3584 45.5706 34.3138 44.7744C34.0732 40.3839 38.0117 30.2852 38.3325 29.4707C41.5292 30.2098 44.726 30.9503 47.9227 31.6923Z" fill="#FF982C"/>
<path d="M45.3496 46.4696C54.4074 49.3615 56.6929 52.1938 56.8622 54.3948C57.0137 56.383 55.4187 57.5979 53.1933 62.4733C52.0944 64.8778 51.2051 67.3776 50.5356 69.9433" stroke="black" stroke-width="0.366447" stroke-miterlimit="10" stroke-linecap="round"/>
<path d="M41.4223 77.493C41.4023 77.5976 41.4032 77.7053 41.4251 77.8095C41.447 77.9136 41.4894 78.0121 41.5497 78.0989C41.6099 78.1857 41.6869 78.2588 41.7757 78.314C41.8645 78.3691 41.9633 78.4051 42.0661 78.4196L62.2355 81.2543C62.3389 81.2687 62.4441 81.2612 62.5446 81.232C62.645 81.2029 62.7386 81.1529 62.8194 81.0851C62.9003 81.0173 62.9667 80.9332 63.0146 80.8379C63.0624 80.7427 63.0907 80.6383 63.0976 80.5313C63.3026 77.6462 62.4226 75.8137 61.9904 75.0542C59.5645 70.7941 53.2958 68.854 46.6797 70.9108" stroke="black" stroke-width="0.366447" stroke-miterlimit="10" stroke-linecap="round"/>
<path d="M38.5811 29.022C38.2091 29.8616 31.6151 44.9456 35.4735 47.9199C36.1952 48.4759 37.5519 48.819 39.8642 49.4002C41.6496 49.8503 43.4637 50.1706 45.293 50.3587C49.9444 51.8528 51.1875 53.6739 51.4927 55.026C52.1922 58.1353 48.3383 60.5605 45.0948 66.4472C43.2259 69.8683 41.9831 73.612 41.428 77.4931" stroke="black" stroke-width="0.366447" stroke-miterlimit="10" stroke-linecap="round"/>
<path d="M49.1762 38.7065C49.4338 38.2254 49.637 37.7157 49.7822 37.1873C49.955 36.58 50.0442 35.9508 50.0473 35.3181C49.9915 33.3482 47.9956 31.8383 47.697 31.6187" stroke="black" stroke-width="0.366447" stroke-miterlimit="10" stroke-linecap="round"/>
<path d="M46.4463 46.764C47.0434 45.2357 47.6405 43.7073 48.2374 42.1791" stroke="black" stroke-width="0.366447" stroke-miterlimit="10" stroke-linecap="round"/>
<path d="M48.0332 51.4619C48.3229 54.5986 48.6132 57.7361 48.9042 60.8743" stroke="black" stroke-width="0.366447" stroke-miterlimit="10" stroke-linecap="round"/>
<path d="M49.4964 8.0422C52.1541 9.68261 57.8369 13.7596 59.8195 20.8681C60.3832 22.886 61.1873 25.7664 59.815 28.2648C57.4938 32.4928 50.7484 32.3235 48.748 32.2731C40.2003 32.0581 30.8018 26.4505 31.0958 21.5247C31.2206 19.4153 33.1163 17.5666 35.8542 14.8944C37.4196 13.3683 39.1534 12.0353 41.0202 10.9226C40.6436 8.49977 41.2986 6.3606 42.7488 5.47062C43.2864 5.15744 43.8952 4.99638 44.5132 5.00388C47.2844 4.92837 49.2069 7.62122 49.4964 8.0422Z" fill="#FF982C" stroke="black" stroke-width="0.366447" stroke-miterlimit="10" stroke-linecap="round"/>
<path d="M58.9971 20.0001C58.4466 19.7039 57.8671 19.4684 57.2683 19.2973C55.8008 18.8513 54.4698 19.2834 53.6428 19.4836" stroke="black" stroke-width="0.366447" stroke-miterlimit="10" stroke-linecap="round"/>
<path d="M50.0895 18.5802C50.1775 19.0083 50.2068 19.447 50.1767 19.8835C50.1243 20.6196 50.0343 21.879 49.1037 22.4095C48.7239 22.6045 48.2961 22.6788 47.875 22.6227C47.4538 22.5667 47.0586 22.3828 46.7398 22.0947C46.0855 21.477 46.1052 20.5489 46.1244 19.6588C46.1381 19.0856 46.2382 18.5179 46.4212 17.9762C46.9687 17.9171 47.521 17.9231 48.0672 17.994C48.7655 18.0872 49.4468 18.2847 50.0895 18.5802Z" fill="white" stroke="black" stroke-width="0.366447" stroke-miterlimit="10"/>
<path d="M51.4211 19.2572C50.5585 18.7159 49.6143 18.3256 48.6271 18.1023C47.4304 17.8362 46.1934 17.8239 44.9919 18.0662" stroke="black" stroke-width="0.366447" stroke-miterlimit="10" stroke-linecap="round"/>
<path d="M54.6949 19.3048C54.5033 19.6957 54.366 20.1122 54.2869 20.5422C54.1549 21.2677 53.9292 22.509 54.6974 23.2655C55.0162 23.5536 55.4114 23.7375 55.8325 23.7935C56.2537 23.8496 56.6815 23.7753 57.0613 23.5802C57.8474 23.1542 58.0587 22.2516 58.2609 21.386C58.3894 20.8658 58.4337 20.3275 58.3919 19.7926C57.9767 19.6306 57.437 19.355 56.7956 19.2675C56.0973 19.1747 55.3896 19.1873 54.6949 19.3048Z" fill="white" stroke="black" stroke-width="0.366447" stroke-miterlimit="10"/>
<path d="M57.6355 22.7539C57.2162 22.4463 56.6329 21.9967 56.6846 21.4724C56.7227 21.1526 56.8642 20.8551 57.0863 20.6275C57.375 20.3219 57.8875 20.2446 58.2967 20.3128C58.3412 20.3157 58.3839 20.3315 58.42 20.3584C58.497 20.4412 58.5455 20.5477 58.5581 20.6615C58.5707 20.7753 58.5467 20.8902 58.4897 20.9887C58.3533 21.3192 58.298 21.7836 58.0413 22.0274C57.8061 22.2493 57.8694 22.5398 57.6355 22.7539Z" fill="black"/>
<path d="M49.7096 21.6281C49.2275 21.4415 48.5513 21.1608 48.4702 20.6405C48.4269 20.3213 48.4892 19.9964 48.6471 19.7179C48.8497 19.3464 49.3255 19.1365 49.7381 19.0944C49.7818 19.0856 49.827 19.0896 49.8686 19.1059C49.9637 19.1657 50.0372 19.2557 50.0778 19.3624C50.1184 19.4691 50.124 19.5864 50.0936 19.6966C50.0445 20.0522 50.1072 20.5156 49.9201 20.8189C49.7483 21.0953 49.8822 21.3595 49.7096 21.6281Z" fill="black"/>
<path d="M47.1016 24.6112C47.293 24.6305 47.485 24.5791 47.6429 24.4663C47.7543 24.3713 47.8415 24.2498 47.8967 24.1123C47.9519 23.9748 47.9735 23.8255 47.9597 23.6775" stroke="black" stroke-width="0.366447" stroke-miterlimit="10" stroke-linecap="round"/>
<path d="M48.6841 25.5748C48.1467 25.843 47.697 26.2662 47.39 26.7926C47.1622 27.1949 46.8301 27.7821 47.0883 28.3102C47.2111 28.5372 47.4014 28.718 47.6313 28.8262C47.8612 28.9345 48.1187 28.9645 48.3664 28.9119C48.8361 28.7793 48.9532 28.2756 49.4902 27.44C49.8368 26.9003 50.2419 26.4028 50.6978 25.957" fill="#FFBAB0"/>
<path d="M48.6841 25.5748C48.1467 25.843 47.697 26.2662 47.39 26.7926C47.1622 27.1949 46.8301 27.7821 47.0883 28.3102C47.2111 28.5372 47.4014 28.718 47.6313 28.8262C47.8612 28.9345 48.1187 28.9645 48.3664 28.9119C48.8361 28.7793 48.9532 28.2756 49.4902 27.44C49.8368 26.9003 50.2419 26.4028 50.6978 25.957" stroke="black" stroke-width="0.366447" stroke-miterlimit="10" stroke-linecap="round"/>
<path d="M48.2104 27.4702C48.479 26.8702 48.8856 26.3464 49.3951 25.9437" stroke="black" stroke-width="0.366447" stroke-miterlimit="10" stroke-linecap="round"/>
<path d="M47.6431 24.4663C47.981 25.015 48.4684 25.4497 49.0447 25.7164C50.3108 26.288 51.49 25.7332 51.681 25.6396" stroke="black" stroke-width="0.366447" stroke-miterlimit="10" stroke-linecap="round"/>
<path d="M56.6816 43.1263C51.598 42.6734 47.8845 41.8703 46.7372 41.296C46.1685 41.0083 45.6391 40.6452 45.1623 40.2161C44.7927 39.865 44.4665 39.4685 44.191 39.0356C43.0839 37.3563 42.6316 34.8808 42.5381 34.3386" stroke="black" stroke-width="0.366447" stroke-miterlimit="10" stroke-linecap="round"/>
<path d="M44.739 34.2633C45.1107 35.3196 45.7065 36.2778 46.4833 37.0683C46.5033 37.0888 46.5279 37.1118 46.5568 37.1414C47.5528 38.0185 48.7204 38.666 49.9807 39.0404C51.4777 39.5003 55.1468 39.7405 59.8761 38.8185" stroke="black" stroke-width="0.366447" stroke-miterlimit="10" stroke-linecap="round"/>
<path d="M51.447 24.6499C51.9683 24.4258 52.5698 24.1122 52.5319 23.8446C52.4717 23.4259 50.8477 23.1582 50.6629 23.5357C50.5447 23.7782 51.0193 24.2701 51.447 24.6499Z" fill="black"/>
<path d="M51.2888 16.2579C50.9657 16.3837 50.5603 16.0016 50.0635 15.5327C49.5868 15.0842 49.2393 14.757 49.3128 14.6289C49.4688 14.3566 51.5762 14.988 51.6096 15.7499C51.6093 15.8573 51.5789 15.9623 51.5221 16.0524C51.4652 16.1425 51.3842 16.2139 51.2888 16.2579Z" fill="black"/>
<path d="M54.208 17.6124C54.4552 17.8596 54.9765 17.6765 55.6136 17.45C56.224 17.2349 56.6696 17.0771 56.6539 16.9307C56.6183 16.6172 54.4396 16.3312 54.1122 17.0153C54.0702 17.1137 54.0568 17.2225 54.0738 17.3285C54.0908 17.4345 54.1374 17.5331 54.208 17.6124Z" fill="black"/>
<path d="M59.8769 38.8171C62.579 37.9592 66.0921 40.7641 65.9117 42.9468C65.8804 43.3357 65.6978 44.0838 64.6441 44.9143C64.5414 45.2947 64.3304 45.6349 64.0382 45.8913C63.832 46.0629 63.5946 46.1907 63.3399 46.2672C63.0852 46.3438 62.8183 46.3677 62.5545 46.3374C62.0777 46.6692 61.5353 46.8888 60.9663 46.9803C60.3582 47.0769 59.7364 47.0227 59.1529 46.8224C58.1304 46.8704 57.6114 46.5685 57.3262 46.2779C56.7247 45.6602 56.5509 44.4316 56.767 43.1389" stroke="black" stroke-width="0.366447" stroke-miterlimit="10" stroke-linecap="round"/>
<path d="M64.6571 44.8436C64.5484 44.1701 64.276 43.5357 63.8652 42.999C63.4544 42.4623 62.9184 42.0407 62.3069 41.7732" stroke="black" stroke-width="0.366447" stroke-miterlimit="10" stroke-linecap="round"/>
<path d="M62.5129 46.3716C62.2589 45.9553 62.0049 45.5298 61.751 45.0904C61.3433 44.3858 60.9646 43.6948 60.6082 43.0176" stroke="black" stroke-width="0.366447" stroke-miterlimit="10" stroke-linecap="round"/>
<path d="M59.1531 46.6985C58.9981 46.1353 58.915 45.5539 58.9058 44.9688C58.8983 44.4671 58.9446 43.9661 59.0439 43.4749" stroke="black" stroke-width="0.366447" stroke-miterlimit="10" stroke-linecap="round"/>
<path d="M33.3068 45.4402C33.211 44.875 33.1175 44.3099 33.0217 43.7471C33.3982 43.6418 33.7725 43.5389 34.1489 43.4337C34.2136 43.9737 34.2804 44.5158 34.345 45.0558C33.9975 45.1839 33.6514 45.312 33.3068 45.4402Z" fill="black"/>
<path d="M58.4756 24.0302C57.837 23.4394 56.9964 23.1327 56.1379 23.1771C54.4269 23.2995 53.5922 24.8695 53.5425 24.9671" fill="#FF982C"/>
<path d="M58.4756 24.0302C57.837 23.4394 56.9964 23.1327 56.1379 23.1771C54.4269 23.2995 53.5922 24.8695 53.5425 24.9671" stroke="black" stroke-width="0.366447" stroke-miterlimit="10" stroke-linecap="round"/>
<path d="M34.728 54.0123C34.8795 52.571 35.031 51.1304 35.1825 49.6906" stroke="black" stroke-width="1.42251" stroke-miterlimit="10"/>
<path d="M49.1739 33.3869C46.0413 33.0536 42.9633 32.3077 40.016 31.1678C39.3454 30.9069 38.6994 30.6324 38.0823 30.3509C38.1291 30.0879 38.1781 29.8247 38.2249 29.5616C40.4989 30.635 42.8845 31.4387 45.3356 31.9571C46.454 32.1923 47.5835 32.3679 48.7195 32.4833C48.8709 32.7829 49.0224 33.085 49.1739 33.3869Z" fill="black"/>
<path d="M48.0092 42.7327C47.3988 42.4832 43.5316 40.8338 42.5491 36.9489C42.3283 36.0624 42.2701 35.1415 42.3776 34.2332C42.5024 35.169 43.0215 38.166 45.5343 40.3373C46.3745 41.0605 47.3394 41.6154 48.3789 41.9731C48.2543 42.2271 48.1317 42.4787 48.0092 42.7327Z" fill="black"/>
<path d="M46.4453 46.7644C46.4922 46.57 46.5411 46.3755 46.588 46.181C46.1803 46.2405 45.7726 46.2977 45.365 46.3572C45.7237 46.4921 46.0838 46.6279 46.4453 46.7644Z" fill="black"/>
<path d="M48.9084 52.0217C49.5819 52.7475 50.0761 53.6286 50.3497 54.591C51.2051 57.6957 49.2515 60.3496 48.9842 60.6997C49.8318 60.0033 50.5074 59.1112 50.9557 58.096C51.2876 57.3388 51.7509 56.2772 51.4881 55.0257C51.0759 53.0695 49.198 52.1567 48.9084 52.0217Z" fill="black"/>
<path d="M18.8599 46.3549H0.826904" stroke="black" stroke-width="0.142251" stroke-miterlimit="10"/>
<path d="M27.9017 50.91H15.1038" stroke="black" stroke-width="0.142251" stroke-miterlimit="10"/>
<path d="M26.8797 22.1722H17.3252" stroke="black" stroke-width="0.142251" stroke-miterlimit="10"/>
<path d="M29.2682 25.6764H22.1018" stroke="black" stroke-width="0.142251" stroke-miterlimit="10"/>
<path d="M38.3293 29.4677C35.0413 28.0904 32.8781 24.9881 32.8492 21.65C32.8202 18.1428 35.157 15.8571 35.5804 15.459C34.3427 16.3288 33.2643 17.4163 32.3947 18.6712C31.6841 19.7031 31.1696 20.4581 31.0939 21.5219C30.978 23.1601 31.9849 24.4321 32.9071 25.5646C34.3655 27.3141 36.2306 28.6567 38.3293 29.4677Z" fill="black"/>
<path d="M60.5509 24.6858C60.2741 26.1012 59.7041 27.4388 58.8796 28.6081C58.0551 29.7773 56.9955 30.7508 55.7725 31.4625C57.348 30.9998 58.7039 29.9605 59.5841 28.5409C60.2741 27.3839 60.6109 26.0412 60.5509 24.6858Z" fill="black"/>
<path d="M60.7659 16.7977C60.7544 16.929 60.7105 17.0551 60.6384 17.1642C60.5663 17.2732 60.4684 17.3616 60.3539 17.4211C60.2394 17.4806 60.112 17.5092 59.9838 17.5042C59.8555 17.4992 59.7306 17.4608 59.6208 17.3926C57.2139 15.8981 54.616 14.7554 51.9019 13.9974C44.6331 11.9772 38.3266 13.2538 34.8558 14.3063C34.7373 14.3426 34.6118 14.3483 34.4906 14.3229C34.3693 14.2976 34.2561 14.242 34.1607 14.161C34.0654 14.0801 33.9909 13.9762 33.9439 13.8587C33.8969 13.7412 33.8788 13.6135 33.8913 13.4871C34.0984 11.3915 34.8781 7.52495 37.9121 4.65138C43.2162 -0.375101 52.8265 0.0847623 57.7051 5.82048C60.953 9.63668 60.9798 14.471 60.7659 16.7977Z" fill="black"/>
<path d="M42.1207 12.1854C40.6855 18.9259 41.5803 25.9693 44.6513 32.106" stroke="black" stroke-width="0.995756" stroke-miterlimit="10" stroke-linecap="round"/>
<path d="M56.3991 4.50496C57.2944 7.55392 57.47 10.778 56.9115 13.9105C56.8809 11.2389 56.3097 8.60316 55.234 6.17056C54.6259 4.80748 53.8624 3.52337 52.9595 2.34521C54.2119 2.86996 55.3734 3.59929 56.3991 4.50496Z" fill="#FF982C"/>
<path d="M50.1981 1.49609C50.6952 2.28892 51.1146 3.1304 51.4501 4.00819C52.7488 7.40798 52.4748 10.5515 52.1607 12.3315C51.8844 9.63686 50.9554 7.05617 49.4586 4.82496C48.5227 3.44539 47.3807 2.2262 46.0747 1.21237C46.9287 1.14716 47.7866 1.15864 48.6387 1.2467C49.1624 1.30155 49.683 1.3848 50.1981 1.49609Z" fill="#FF982C"/>
<path d="M43.3443 1.67212C44.7527 2.85442 45.8182 4.41103 46.4247 6.17236C47.0312 7.9337 47.1554 9.8322 46.7838 11.661C46.5949 9.4503 45.6825 7.37047 44.1952 5.76057C43.0063 4.50359 41.5071 3.60207 39.8579 3.1524C40.9461 2.49227 42.1199 1.99388 43.3443 1.67212Z" fill="#FF982C"/>
<path d="M37.4203 5.14771C38.4463 5.90781 39.3062 6.88 39.9446 8.00177C40.583 9.12355 40.9858 10.3701 41.1272 11.6613C40.5734 10.3224 39.6553 9.17613 38.4829 8.3599C37.6824 7.8126 36.7833 7.43531 35.8386 7.25025C36.1116 6.8046 36.4091 6.3753 36.7297 5.96446C36.9614 5.66704 37.1931 5.39479 37.4203 5.14771Z" fill="#FF982C"/>
</g>
<defs>
<clipPath id="clip0_29_5363">
<rect width="90" height="90" fill="white" transform="translate(0.679199 0.343994)"/>
</clipPath>
</defs>
</svg>
